<svg xmlns="http://www.w3.org/2000/svg" viewBox="0 0 24 24" width="24" height="24" fill="currentColor">
  <path d="M16.365 1.43c0 1.14-.42 2.1-1.26 2.88-.84.78-1.86 1.2-3.06 1.14-.06-1.08.36-2.04 1.2-2.88.84-.84 1.86-1.26 3.06-1.2.06.36.06.72.06 1.06zM21 17.13c-.36.84-.78 1.62-1.26 2.34-.72 1.02-1.32 1.74-1.8 2.1-.72.66-1.5.96-2.34.96-.6 0-1.26-.18-2.04-.54-.78-.36-1.5-.54-2.1-.54-.66 0-1.38.18-2.16.54-.78.36-1.38.54-1.8.54-.84 0-1.62-.3-2.34-.96-.48-.42-1.1-1.14-1.86-2.16C2.16 19.35 1.5 18 1.5 16.5c0-1.2.24-2.34.72-3.42.48-1.08 1.14-1.98 1.98-2.7.78-.66 1.5-.96 2.16-.96.54 0 1.26.18 2.16.54.9.36 1.62.54 2.16.54.48 0 1.2-.18 2.16-.54.96-.36 1.74-.54 2.34-.54.84 0 1.62.3 2.34.96.54.48 1.02 1.08 1.44 1.8-1.32.78-1.98 1.86-1.98 3.24 0 1.08.42 1.98 1.26 2.7.36.3.84.6 1.5.9-.12.3-.24.6-.36.84z"/>
</svg>

