<svg xmlns="http://www.w3.org/2000/svg" viewBox="0 0 48 48" width="48" height="48">
  <path fill="#FFC107" d="M43.611,20.083H42V20H24v8h11.303c-1.649,4.657-6.08,8-11.303,8c-6.627,0-12-5.373-12-12 s5.373-12,12-12c3.059,0,5.842,1.154,7.961,3.039l5.657-5.657C33.046,6.053,28.738,4,24,4C12.955,4,4,12.955,4,24 s8.955,20,20,20s20-8.955,20-20C44,22.659,43.862,21.35,43.611,20.083z"/>
  <path fill="#FF3D00" d="M6.306,14.691l6.571,4.819C14.655,16.108,18.961,13,24,13c3.059,0,5.842,1.154,7.961,3.039l5.657-5.657 C33.046,6.053,28.738,4,24,4C16.318,4,9.656,8.337,6.306,14.691z"/>
  <path fill="#4CAF50" d="M24,44c4.697,0,8.966-1.802,12.186-4.732l-5.621-4.743C28.564,35.924,26.392,36.8,24,36.8 c-5.188,0-9.594-3.316-11.227-7.946l-6.53,5.027C9.556,39.556,16.227,44,24,44z"/>
  <path fill="#1976D2" d="M43.611,20.083H42V20H24v8h11.303c-0.793,2.238-2.231,4.166-4.117,5.525c0.001-0.001,0.002-0.001,0.003-0.002 l6.561,4.761C36.431,39.215,44,34,44,24C44,22.659,43.862,21.35,43.611,20.083z"/>
</svg>

